<?xml version="1.0" encoding="UTF-8" standalone="no"?> <svg width="42" height="44" viewBox="0 0 42 44" fill="none" xmlns="http://www.w3.org/2000/svg">
<path d="M33.5352 24.0963C33.5352 35.2652 26.1934 41.0694 17.1289 41.0694C8.06445 41.0694 0.722656 35.2652 0.722656 24.0963C0.722656 12.9273 8.07266 0.610596 17.1289 0.610596C26.1852 0.610596 33.5352 12.9273 33.5352 24.0963Z" fill="#FBF1CF"/>
<path d="M6.46484 24.0963C6.46484 14.1322 12.3055 3.25629 20 1.02577C19.0648 0.757127 18.1051 0.610596 17.1289 0.610596C8.07266 0.610596 0.722656 12.9273 0.722656 24.0963C0.722656 35.2652 8.06445 41.0694 17.1289 41.0694C18.1051 41.0694 19.0648 41.0043 20 40.8659C12.3055 39.7507 6.46484 34.0604 6.46484 24.0963Z" fill="#93B296"/>
<path d="M0.722656 24.0963C0.722656 24.7475 0.747266 25.3825 0.796484 25.993C3.87266 26.0093 5.20156 27.0676 6.78477 27.9712C6.57969 26.7582 6.46484 25.472 6.46484 24.0963C6.46484 14.1322 12.3055 3.25629 20 1.02577C19.0648 0.757127 18.1051 0.610596 17.1289 0.610596C8.07266 0.610596 0.722656 12.9273 0.722656 24.0963Z" fill="#C4E3BE"/>
<path d="M36.7836 21.8169L35.5695 2.50736C35.5039 1.44094 34.6098 0.610596 33.5352 0.610596C32.4605 0.610596 31.5664 1.44094 31.5008 2.50736L30.2867 21.8169H36.7836Z" fill="#4E5660"/>
<path d="M36.1766 12.1215C36.1766 13.5623 34.9953 14.7346 33.5352 14.7346C32.0832 14.7346 30.9019 13.5623 30.8937 12.1215L30.2867 21.8169H36.7836L36.1766 12.1215Z" fill="#3A4351"/>
<path d="M38.4816 29.2411L38.0141 21.8168C37.9731 21.1819 37.5711 20.6283 36.9723 20.4004C36.0371 20.0503 35.0363 19.8387 33.9945 19.7898C32.6246 19.7247 31.3121 19.9445 30.1145 20.3922C29.5074 20.6202 29.0891 21.1737 29.0481 21.8168L28.5805 29.2411H38.4816Z" fill="#CDE9FA"/>
<path d="M33.3957 19.8224C33.4367 19.8062 33.4695 19.798 33.5106 19.7817C32.3129 19.7817 31.1727 20.0015 30.1145 20.3923C29.5074 20.6202 29.0891 21.1738 29.0481 21.8169L28.5805 29.2411H31.8617L32.3293 21.247C32.3785 20.6039 32.7887 20.0504 33.3957 19.8224Z" fill="#A2DDFD"/>
<path d="M33.8059 25.3011C36.7426 25.4314 39.1297 27.8003 39.2691 30.7228C39.3758 33.0754 38.0551 35.1268 36.0863 36.0956C34.5441 36.8608 33.5352 38.3912 33.5352 40.1089V40.1252C33.5352 41.0288 32.3949 41.4195 31.8289 40.7113C30.1391 38.5947 27.793 34.9477 27.793 30.9914C27.793 27.7514 30.5164 25.1464 33.8059 25.3011Z" fill="white"/>
<path d="M39.777 30.6901C39.7277 29.6481 39.416 28.6631 38.9074 27.8083V27.8002L38.5301 21.7843C38.4809 20.9376 37.9477 20.1969 37.1766 19.8712L36.0773 2.4666C35.9871 1.0827 34.8305 0 33.4277 0C32.0332 0 30.8684 1.0827 30.7781 2.4666L30.3188 9.78501C28.9324 7.25328 27.2426 5.07974 25.3559 3.43534C22.7801 1.18853 19.8926 0 17.0215 0C12.9609 0 8.95781 2.36078 5.73398 6.65088C4.88224 7.92755 5.53331 7.31289 5.85703 7.50564C5.16432 9.3617 6.51328 7.65217 6.71836 7.38353C9.69609 3.41092 13.3547 1.22109 17.0133 1.22109C22.0336 1.22109 27.0621 5.43793 30.1547 12.2272L29.6707 19.8631C28.8996 20.1969 28.3664 20.9376 28.3172 21.7761L27.9891 26.9373C26.652 26.1476 25.1918 25.3824 22.4684 25.3824C19.5645 25.3824 18.0961 26.2535 16.6852 27.1001C15.3562 27.8897 14.093 28.6387 11.5336 28.6387C8.96602 28.6387 7.71094 27.8897 6.38203 27.1001C5.09414 26.3186 3.74883 25.5208 1.27148 25.3987C1.24688 24.9673 1.23047 24.5358 1.23047 24.0962C1.23047 19.0897 2.74805 13.7169 5.38945 9.3617C5.56172 9.07678 6.68086 6.98242 5.85703 7.50564C6.5 5.5 5.64899 6.80392 4.33125 8.73487C1.575 13.2773 0 18.8781 0 24.0962C0 29.5423 1.72266 34.0766 4.9957 37.2107C6.52148 38.676 8.35078 39.7994 10.4262 40.5565C12.4523 41.2973 14.6754 41.6718 17.0215 41.6718C21.6645 41.6718 25.8234 40.1658 28.8258 37.4142C29.5805 38.8633 30.4746 40.1169 31.2375 41.0775C31.541 41.4601 31.9922 41.6718 32.4598 41.6718C32.632 41.6718 32.8125 41.6392 32.9848 41.5822C33.6246 41.3624 34.0348 40.7845 34.0348 40.1088V40.0925C34.0348 38.6272 34.8797 37.3003 36.2496 36.6327C38.5137 35.5256 39.8918 33.1893 39.777 30.6901ZM32.0086 2.53987C32.0578 1.79907 32.6813 1.22109 33.4277 1.22109C34.1742 1.22109 34.7977 1.79907 34.8469 2.53987L35.9133 19.4642C35.257 19.3014 34.5926 19.2037 33.9199 19.1793C32.9109 19.1304 31.9102 19.2281 30.9504 19.4642L32.0086 2.53987ZM30.2285 20.9621C31.3852 20.5306 32.6074 20.3434 33.8625 20.4004C34.8141 20.4411 35.7574 20.6364 36.6516 20.9702C37.0207 21.1086 37.275 21.4586 37.2996 21.8575L37.5785 26.229C36.5285 25.3254 35.1914 24.7556 33.7313 24.6905C32.0906 24.6172 30.5238 25.1545 29.2934 26.2046L29.5641 21.8494C29.5887 21.4505 29.8512 21.1005 30.2285 20.9621ZM35.7082 35.5419C33.9199 36.4211 32.8125 38.1713 32.8125 40.1006V40.1169C32.8125 40.3367 32.6566 40.41 32.5828 40.4344C32.5172 40.4588 32.3367 40.4995 32.1973 40.3204C30.8602 38.6516 28.6927 34.3418 28.5305 33.116C28.3682 31.8902 27.9189 29.7873 27.5 30C26.8164 29.3988 27.0635 32.2051 27.3246 33.3684C27.5857 34.5316 27.7474 35.1663 28.268 36.2583C25.4789 38.9691 21.5004 40.4588 17.0215 40.4588C8.26875 40.4588 2.34609 35.1105 1.36992 26.6279C3.43711 26.7582 4.56914 27.4339 5.7668 28.1421C7.18594 28.9887 8.64609 29.8598 11.55 29.8598C14.4539 29.8598 15.9223 28.9887 17.3332 28.1421C18.6621 27.3525 19.9254 26.6035 22.4848 26.6035C25.0523 26.6035 26.3074 27.3525 27.6363 28.1421C27.6609 28.1584 27.6938 28.1747 27.7184 28.1909C27.3164 29.005 27.0867 29.9005 27.0621 30.8366C27.0539 31.1704 27.3246 31.4553 27.6609 31.4635C27.9973 31.4716 28.2185 31.7972 28.2267 31.4635C28.2595 30.0877 28.9078 28.2154 29.925 27.271C30.9422 26.3267 32.2711 25.8464 33.6656 25.9116C36.2824 26.0337 38.4234 28.1584 38.5383 30.7471C38.6449 32.766 37.5293 34.6464 35.7082 35.5419Z" fill="black"/>
</svg>
